<svg width="204" height="233" viewBox="0 0 204 233" fill="none" xmlns="http://www.w3.org/2000/svg">
<path d="M198.262 218.27H189.168V10.9135C189.168 4.88607 184.282 0 178.254 0H25.4649C19.4374 0 14.5514 4.88607 14.5514 10.9135V218.27H5.45676C2.44326 218.27 0 220.714 0 223.727V232.822H203.719V223.727C203.719 220.714 201.276 218.27 198.262 218.27ZM58.2054 34.5595C58.2054 31.546 60.6487 29.1027 63.6622 29.1027H81.8514C84.8649 29.1027 87.3081 31.546 87.3081 34.5595V52.7487C87.3081 55.7622 84.8649 58.2054 81.8514 58.2054H63.6622C60.6487 58.2054 58.2054 55.7622 58.2054 52.7487V34.5595ZM58.2054 78.2135C58.2054 75.2 60.6487 72.7568 63.6622 72.7568H81.8514C84.8649 72.7568 87.3081 75.2 87.3081 78.2135V96.4027C87.3081 99.4162 84.8649 101.859 81.8514 101.859H63.6622C60.6487 101.859 58.2054 99.4162 58.2054 96.4027V78.2135ZM81.8514 145.514H63.6622C60.6487 145.514 58.2054 143.07 58.2054 140.057V121.868C58.2054 118.854 60.6487 116.411 63.6622 116.411H81.8514C84.8649 116.411 87.3081 118.854 87.3081 121.868V140.057C87.3081 143.07 84.8649 145.514 81.8514 145.514ZM116.411 218.27H87.3081V180.073C87.3081 177.06 89.7514 174.616 92.7649 174.616H110.954C113.968 174.616 116.411 177.06 116.411 180.073V218.27ZM145.514 140.057C145.514 143.07 143.07 145.514 140.057 145.514H121.868C118.854 145.514 116.411 143.07 116.411 140.057V121.868C116.411 118.854 118.854 116.411 121.868 116.411H140.057C143.07 116.411 145.514 118.854 145.514 121.868V140.057ZM145.514 96.4027C145.514 99.4162 143.07 101.859 140.057 101.859H121.868C118.854 101.859 116.411 99.4162 116.411 96.4027V78.2135C116.411 75.2 118.854 72.7568 121.868 72.7568H140.057C143.07 72.7568 145.514 75.2 145.514 78.2135V96.4027ZM145.514 52.7487C145.514 55.7622 143.07 58.2054 140.057 58.2054H121.868C118.854 58.2054 116.411 55.7622 116.411 52.7487V34.5595C116.411 31.546 118.854 29.1027 121.868 29.1027H140.057C143.07 29.1027 145.514 31.546 145.514 34.5595V52.7487Z" fill="black"/>
</svg>
