<svg width="296" height="252" viewBox="0 0 296 252" fill="none" xmlns="http://www.w3.org/2000/svg">
<path d="M122.379 1.84896C121.194 0.665047 119.587 0 117.912 0C116.237 0 114.631 0.665047 113.446 1.84896L1.78938 113.506C0.927007 114.395 0.343921 115.518 0.112081 116.734C-0.119759 117.951 0.00979287 119.21 0.484748 120.354C0.959703 121.498 1.75928 122.478 2.78479 123.173C3.81031 123.868 5.0169 124.248 6.25565 124.265H41.7828V244.829C41.7828 246.505 42.4485 248.112 43.6335 249.297C44.8185 250.482 46.4257 251.148 48.1015 251.148H136.919C137.749 251.154 138.572 250.998 139.341 250.686C140.11 250.375 140.811 249.915 141.402 249.333C141.994 248.751 142.465 248.058 142.788 247.294C143.112 246.53 143.282 245.71 143.289 244.88V107.085C143.29 105.41 143.956 103.803 145.141 102.619L181.354 60.824L122.379 1.84896ZM117.912 200.395H92.5358V175.018H117.912V200.395ZM117.912 149.642H92.5358V124.265H117.912V149.642ZM289.204 48.1357H276.515C274.833 48.1357 273.219 48.8041 272.03 49.9939C270.84 51.1836 270.171 52.7973 270.171 54.4798V98.8887L236.573 52.602C235.388 51.4181 233.782 50.753 232.107 50.753C230.432 50.753 228.825 51.4181 227.64 52.602L170.086 122.54C169.169 123.655 168.667 125.054 168.665 126.498V244.753C168.655 245.583 168.809 246.406 169.117 247.177C169.425 247.947 169.882 248.65 170.462 249.243C171.042 249.837 171.733 250.311 172.496 250.638C173.258 250.965 174.078 251.138 174.908 251.148H212.973C213.816 251.151 214.651 250.988 215.432 250.669C216.212 250.349 216.921 249.879 217.52 249.285C218.118 248.691 218.594 247.986 218.92 247.208C219.246 246.43 219.415 245.596 219.418 244.753V200.395H244.795V244.728C244.795 246.43 245.471 248.063 246.675 249.267C247.879 250.471 249.512 251.148 251.215 251.148H289.28C290.945 251.128 292.535 250.454 293.708 249.272C294.88 248.09 295.541 246.494 295.548 244.829V54.4798C295.548 52.7973 294.879 51.1836 293.69 49.9939C292.5 48.8041 290.886 48.1357 289.204 48.1357ZM219.418 175.018H194.042V149.642H219.418V175.018ZM270.171 175.018H244.795V149.642H270.171V175.018Z" fill="#3273F6"/>
</svg>
