<svg width="204" height="204" viewBox="0 0 204 204" fill="none" xmlns="http://www.w3.org/2000/svg">
<path d="M201.102 105.084L109.428 3.22387C105.567 -1.07462 98.1518 -1.07462 94.2913 3.22387L2.61713 105.084C-0.0821631 108.069 -0.754441 112.367 0.885507 116.044C2.51527 119.721 6.16186 122.084 10.1853 122.084H30.5574V193.387C30.5574 199.009 35.1105 203.573 40.7434 203.573H71.3014C76.9343 203.573 81.4875 199.009 81.4875 193.387V152.643H122.232V193.387C122.232 199.009 126.785 203.573 132.418 203.573H162.976C168.608 203.573 173.162 199.009 173.162 193.387V122.084H193.534C197.557 122.084 201.204 119.721 202.833 116.044C204.473 112.367 203.801 108.079 201.102 105.084Z" fill="black"/>
</svg>
